<mxfile host="app.diagrams.net" modified="2023-09-21T13:13:40.900Z" agent="Mozilla/5.0 (Macintosh; Intel Mac OS X 10_15_7) AppleWebKit/537.36 (KHTML, like Gecko) Chrome/116.0.0.0 Safari/537.36" etag="7gSSx-n1fHOjZUTFlcGZ" version="21.3.4" type="device">
  <diagram name="Page-1" id="IympZKjpm4HZcFhkEbwq">
    <mxGraphModel dx="1434" dy="738" grid="1" gridSize="10" guides="1" tooltips="1" connect="1" arrows="1" fold="1" page="1" pageScale="1" pageWidth="850" pageHeight="1100" math="0" shadow="0">
      <root>
        <mxCell id="0" />
        <mxCell id="1" parent="0" />
        <mxCell id="g813o5xsBX_RgM1qvGJS-1" value="&lt;font style=&quot;font-size: 22px;&quot;&gt;Clients&lt;/font&gt;" style="rounded=0;whiteSpace=wrap;html=1;sketch=1;curveFitting=1;jiggle=2;dashed=1;verticalAlign=top;" vertex="1" parent="1">
          <mxGeometry x="170" y="70" width="130" height="350" as="geometry" />
        </mxCell>
        <mxCell id="g813o5xsBX_RgM1qvGJS-2" value="Web Client" style="shape=umlActor;verticalLabelPosition=bottom;verticalAlign=top;html=1;outlineConnect=0;sketch=1;curveFitting=1;jiggle=2;shadow=1;" vertex="1" parent="1">
          <mxGeometry x="220" y="205" width="30" height="60" as="geometry" />
        </mxCell>
        <mxCell id="g813o5xsBX_RgM1qvGJS-3" value="&lt;font style=&quot;font-size: 22px;&quot;&gt;Microservices&lt;/font&gt;" style="rounded=0;whiteSpace=wrap;html=1;sketch=1;curveFitting=1;jiggle=2;glass=0;shadow=0;dashed=1;horizontal=1;verticalAlign=top;" vertex="1" parent="1">
          <mxGeometry x="310" y="70" width="521" height="350" as="geometry" />
        </mxCell>
        <mxCell id="g813o5xsBX_RgM1qvGJS-4" value="" style="edgeStyle=orthogonalEdgeStyle;rounded=0;orthogonalLoop=1;jettySize=auto;html=1;" edge="1" parent="1" source="g813o5xsBX_RgM1qvGJS-7" target="g813o5xsBX_RgM1qvGJS-8">
          <mxGeometry relative="1" as="geometry" />
        </mxCell>
        <mxCell id="g813o5xsBX_RgM1qvGJS-5" value="" style="edgeStyle=orthogonalEdgeStyle;rounded=0;orthogonalLoop=1;jettySize=auto;html=1;" edge="1" parent="1" source="g813o5xsBX_RgM1qvGJS-7" target="g813o5xsBX_RgM1qvGJS-9">
          <mxGeometry relative="1" as="geometry" />
        </mxCell>
        <mxCell id="g813o5xsBX_RgM1qvGJS-6" value="" style="edgeStyle=orthogonalEdgeStyle;rounded=0;orthogonalLoop=1;jettySize=auto;html=1;" edge="1" parent="1" source="g813o5xsBX_RgM1qvGJS-7" target="g813o5xsBX_RgM1qvGJS-11">
          <mxGeometry relative="1" as="geometry" />
        </mxCell>
        <mxCell id="g813o5xsBX_RgM1qvGJS-7" value="Chat Server" style="rounded=0;whiteSpace=wrap;html=1;sketch=1;curveFitting=1;jiggle=2;fillColor=#dae8fc;strokeColor=#6c8ebf;" vertex="1" parent="1">
          <mxGeometry x="360" y="215" width="80" height="40" as="geometry" />
        </mxCell>
        <mxCell id="g813o5xsBX_RgM1qvGJS-8" value="Postgres" style="shape=cylinder3;whiteSpace=wrap;html=1;boundedLbl=1;backgroundOutline=1;size=15;verticalAlign=bottom;spacingBottom=0;labelPosition=center;verticalLabelPosition=top;align=center;fillColor=#fff2cc;strokeColor=#d6b656;sketch=1;curveFitting=1;jiggle=2;" vertex="1" parent="1">
          <mxGeometry x="380" y="100" width="40" height="60" as="geometry" />
        </mxCell>
        <mxCell id="g813o5xsBX_RgM1qvGJS-9" value="Redis" style="shape=cylinder3;whiteSpace=wrap;html=1;boundedLbl=1;backgroundOutline=1;size=15;verticalAlign=top;spacingBottom=0;labelPosition=center;verticalLabelPosition=bottom;align=center;fillColor=#f8cecc;strokeColor=#b85450;sketch=1;curveFitting=1;jiggle=2;" vertex="1" parent="1">
          <mxGeometry x="380" y="310" width="40" height="60" as="geometry" />
        </mxCell>
        <mxCell id="g813o5xsBX_RgM1qvGJS-10" value="" style="edgeStyle=orthogonalEdgeStyle;rounded=0;orthogonalLoop=1;jettySize=auto;html=1;" edge="1" parent="1" source="g813o5xsBX_RgM1qvGJS-11" target="g813o5xsBX_RgM1qvGJS-14">
          <mxGeometry relative="1" as="geometry" />
        </mxCell>
        <mxCell id="g813o5xsBX_RgM1qvGJS-11" value="RabbitMQ" style="rounded=0;whiteSpace=wrap;html=1;sketch=1;curveFitting=1;jiggle=2;fillColor=#d5e8d4;strokeColor=#82b366;" vertex="1" parent="1">
          <mxGeometry x="485" y="215" width="80" height="40" as="geometry" />
        </mxCell>
        <mxCell id="g813o5xsBX_RgM1qvGJS-12" value="" style="edgeStyle=orthogonalEdgeStyle;rounded=0;orthogonalLoop=1;jettySize=auto;html=1;" edge="1" parent="1" source="g813o5xsBX_RgM1qvGJS-2" target="g813o5xsBX_RgM1qvGJS-7">
          <mxGeometry relative="1" as="geometry" />
        </mxCell>
        <mxCell id="g813o5xsBX_RgM1qvGJS-13" value="" style="edgeStyle=orthogonalEdgeStyle;rounded=0;orthogonalLoop=1;jettySize=auto;html=1;" edge="1" parent="1" source="g813o5xsBX_RgM1qvGJS-14" target="g813o5xsBX_RgM1qvGJS-15">
          <mxGeometry relative="1" as="geometry" />
        </mxCell>
        <mxCell id="g813o5xsBX_RgM1qvGJS-14" value="API" style="rounded=0;whiteSpace=wrap;html=1;sketch=1;curveFitting=1;jiggle=2;fillColor=#ffe6cc;strokeColor=#d79b00;" vertex="1" parent="1">
          <mxGeometry x="622" y="215" width="80" height="40" as="geometry" />
        </mxCell>
        <mxCell id="g813o5xsBX_RgM1qvGJS-15" value="MongoDB" style="shape=cylinder3;whiteSpace=wrap;html=1;boundedLbl=1;backgroundOutline=1;size=15;verticalAlign=top;spacingBottom=0;labelPosition=center;verticalLabelPosition=bottom;align=center;fillColor=#60a917;strokeColor=#2D7600;sketch=1;curveFitting=1;jiggle=2;fontColor=#000000;" vertex="1" parent="1">
          <mxGeometry x="770" y="205" width="40" height="60" as="geometry" />
        </mxCell>
        <mxCell id="g813o5xsBX_RgM1qvGJS-16" value="Tech Stack" style="swimlane;horizontal=0;whiteSpace=wrap;html=1;sketch=1;curveFitting=1;jiggle=2;" vertex="1" parent="1">
          <mxGeometry x="170" y="430" width="661" height="110" as="geometry" />
        </mxCell>
        <mxCell id="g813o5xsBX_RgM1qvGJS-17" value="UI" style="swimlane;whiteSpace=wrap;html=1;sketch=1;curveFitting=1;jiggle=2;" vertex="1" parent="g813o5xsBX_RgM1qvGJS-16">
          <mxGeometry x="30" y="10" width="100" height="90" as="geometry" />
        </mxCell>
        <mxCell id="g813o5xsBX_RgM1qvGJS-18" value="Next.js&lt;br&gt;React&lt;br&gt;Socket.io-client&lt;br&gt;MUI" style="text;html=1;align=center;verticalAlign=middle;resizable=0;points=[];autosize=1;strokeColor=none;fillColor=none;" vertex="1" parent="g813o5xsBX_RgM1qvGJS-17">
          <mxGeometry y="18" width="100" height="70" as="geometry" />
        </mxCell>
        <mxCell id="g813o5xsBX_RgM1qvGJS-19" value="Chat Server" style="swimlane;whiteSpace=wrap;html=1;sketch=1;curveFitting=1;jiggle=2;fillColor=#dae8fc;strokeColor=#6c8ebf;" vertex="1" parent="g813o5xsBX_RgM1qvGJS-16">
          <mxGeometry x="140" y="10" width="100" height="90" as="geometry" />
        </mxCell>
        <mxCell id="g813o5xsBX_RgM1qvGJS-20" value="Node.js&lt;br&gt;Socket.IO" style="text;html=1;align=center;verticalAlign=middle;resizable=0;points=[];autosize=1;strokeColor=none;fillColor=none;" vertex="1" parent="g813o5xsBX_RgM1qvGJS-19">
          <mxGeometry x="10" y="33" width="80" height="40" as="geometry" />
        </mxCell>
        <mxCell id="g813o5xsBX_RgM1qvGJS-21" value="RabbitMQ" style="swimlane;whiteSpace=wrap;html=1;sketch=1;curveFitting=1;jiggle=2;fillColor=#d5e8d4;strokeColor=#82b366;" vertex="1" parent="g813o5xsBX_RgM1qvGJS-16">
          <mxGeometry x="250" y="10" width="100" height="90" as="geometry" />
        </mxCell>
        <mxCell id="g813o5xsBX_RgM1qvGJS-22" value="RabbitMQ" style="text;html=1;align=center;verticalAlign=middle;resizable=0;points=[];autosize=1;strokeColor=none;fillColor=none;" vertex="1" parent="g813o5xsBX_RgM1qvGJS-21">
          <mxGeometry x="10" y="38" width="80" height="30" as="geometry" />
        </mxCell>
        <mxCell id="g813o5xsBX_RgM1qvGJS-23" value="API" style="swimlane;whiteSpace=wrap;html=1;sketch=1;curveFitting=1;jiggle=2;fillColor=#fff2cc;strokeColor=#d6b656;" vertex="1" parent="g813o5xsBX_RgM1qvGJS-16">
          <mxGeometry x="360" y="10" width="100" height="90" as="geometry" />
        </mxCell>
        <mxCell id="g813o5xsBX_RgM1qvGJS-24" value="Node.js&lt;br&gt;NestJS" style="text;html=1;align=center;verticalAlign=middle;resizable=0;points=[];autosize=1;strokeColor=none;fillColor=none;" vertex="1" parent="g813o5xsBX_RgM1qvGJS-23">
          <mxGeometry x="20" y="33" width="60" height="40" as="geometry" />
        </mxCell>
        <mxCell id="g813o5xsBX_RgM1qvGJS-25" value="DBs" style="swimlane;whiteSpace=wrap;html=1;sketch=1;curveFitting=1;jiggle=2;fillColor=#60a917;fontColor=#000000;strokeColor=#2D7600;" vertex="1" parent="g813o5xsBX_RgM1qvGJS-16">
          <mxGeometry x="470" y="10" width="100" height="90" as="geometry" />
        </mxCell>
        <mxCell id="g813o5xsBX_RgM1qvGJS-26" value="Postgres&lt;br&gt;Redis&lt;br&gt;MongoDB" style="text;html=1;align=center;verticalAlign=middle;resizable=0;points=[];autosize=1;strokeColor=none;fillColor=none;" vertex="1" parent="g813o5xsBX_RgM1qvGJS-25">
          <mxGeometry x="10" y="23" width="80" height="60" as="geometry" />
        </mxCell>
        <mxCell id="g813o5xsBX_RgM1qvGJS-27" value="Principles&lt;br&gt;&lt;ul&gt;&lt;li&gt;KISS&lt;/li&gt;&lt;li&gt;YAGNI&lt;/li&gt;&lt;li&gt;DRY&lt;/li&gt;&lt;li&gt;SOLID&lt;/li&gt;&lt;/ul&gt;&lt;div&gt;Non-Functional&amp;nbsp;&lt;/div&gt;&lt;div&gt;Requirements&lt;/div&gt;&lt;div&gt;&lt;ul&gt;&lt;li&gt;&lt;span style=&quot;background-color: initial;&quot;&gt;Real time response&lt;/span&gt;&lt;/li&gt;&lt;li&gt;Scalability&lt;/li&gt;&lt;li&gt;Availability&lt;/li&gt;&lt;/ul&gt;&lt;/div&gt;" style="text;html=1;align=left;verticalAlign=middle;resizable=0;points=[];autosize=1;strokeColor=none;fillColor=none;" vertex="1" parent="1">
          <mxGeometry x="5" y="163" width="170" height="210" as="geometry" />
        </mxCell>
      </root>
    </mxGraphModel>
  </diagram>
</mxfile>
